<?xml version="1.0" encoding="utf-8"?>
<!-- Generator: Adobe Illustrator 25.4.1, SVG Export Plug-In . SVG Version: 6.00 Build 0)  -->
<svg version="1.1" id="Layer_1" xmlns="http://www.w3.org/2000/svg" xmlns:xlink="http://www.w3.org/1999/xlink" x="0px" y="0px"
	 viewBox="0 0 280 40.6" style="enable-background:new 0 0 280 40.6;" xml:space="preserve">
<g>
	<path d="M18.6,16.5c-1.7,0-3.2,0.6-4.3,1.7s-2,2.8-2.4,5L8.9,36.9H2.4l7.2-34h6.6l-2.6,12c1.3-1.5,2.6-2.5,4-3.1
		c1.4-0.6,2.8-0.9,4.2-0.9c1.6,0,2.9,0.3,4.1,0.8s2,1.4,2.6,2.5c0.5,0.9,0.7,1.9,0.7,2.9c-0.1,1-0.3,2.6-0.8,4.9l-3.1,14.8h-6.7
		l3.2-15.3c0.3-1.4,0.3-2.5,0-3.3C21.3,17.1,20.2,16.5,18.6,16.5z"/>
	<path d="M28.5,36.9l7.2-34.1h6.6l-7.2,34.1H28.5z"/>
	<path d="M57.4,12.1c1,0.7,1.8,1.6,2.3,2.8l2.5-12h6.7l-7.2,34h-6.4l0.7-3.5c-1.3,1.5-2.6,2.6-3.9,3.3c-1.3,0.7-2.9,1-4.7,1
		c-2.9,0-5.2-1.2-6.7-3.6c-1.5-2.4-1.9-5.4-1.1-9.2c0.9-4.3,2.6-7.7,5.1-10.2s5.4-3.7,8.7-3.7C55,11.1,56.3,11.4,57.4,12.1z
		 M53.7,16.9c-1.9,0-3.5,0.7-4.7,2.2c-1.2,1.5-2,3.3-2.5,5.4c-0.5,2.3-0.4,4.2,0.2,5.6c0.6,1.4,1.9,2.1,3.7,2.1
		c1.9,0,3.4-0.7,4.7-2.1c1.3-1.4,2.1-3.2,2.6-5.4c0.6-3.1,0.3-5.3-0.9-6.6C56,17.3,55,16.9,53.7,16.9z"/>
	<path d="M74.7,30c-0.2,1-0.2,1.7,0,1.9c0.2,0.3,1,0.4,2.3,0.4c0.2,0,0.4,0,0.6,0s0.5,0,0.7,0l-1.1,4.9l-3.1,0.1
		c-3.1,0.1-5.1-0.4-6-1.6c-0.6-0.8-0.7-1.9-0.4-3.5L71,16.6h-3.5l1-4.7H72l1.5-7H80l-1.5,7h4.1l-1,4.7h-4.1L74.7,30z"/>
	<path d="M99.1,11.1c0.1,0,0.3,0,0.5,0l-1.4,6.8c-0.4,0-0.8-0.1-1.1-0.1s-0.6,0-0.8,0c-2.7,0-4.6,0.9-5.9,2.6
		c-0.7,1-1.3,2.5-1.7,4.5l-2.5,12h-6.6l5.3-25.2h6.3l-0.9,4.4c1.4-1.7,2.5-2.8,3.4-3.4c1.5-1,3.2-1.5,5.2-1.5
		C98.9,11.1,99,11.1,99.1,11.1z"/>
	<path d="M113.1,33.4c-0.1,0.1-0.3,0.3-0.6,0.7s-0.7,0.7-1.1,1c-1.2,0.9-2.4,1.6-3.4,1.9c-1,0.3-2.2,0.5-3.5,0.5c-3.7,0-6-1.3-6.7-4
		c-0.4-1.5-0.3-3.7,0.3-6.5l3.2-15.2h6.8l-3.2,15.2c-0.3,1.4-0.4,2.5-0.2,3.2c0.3,1.3,1.4,1.9,3.1,1.9c2.3,0,4-0.9,5.2-2.7
		c0.6-1,1.1-2.3,1.5-3.9l2.9-13.7h6.7l-5.3,25.2h-6.4L113.1,33.4z"/>
	<path d="M148.3,2.9h5.2l5.1,34h-5l-1.3-10.2h-13.4L133,36.9h-4.7L148.3,2.9z M151.6,23l-2-15L141,23H151.6z"/>
	<path d="M161.4,12.1h4v4.3c0.3-0.8,1.1-1.8,2.4-3s2.7-1.8,4.4-1.8c0.1,0,0.2,0,0.4,0c0.2,0,0.5,0,0.9,0.1v4.4
		c-0.2,0-0.5-0.1-0.7-0.1c-0.2,0-0.4,0-0.7,0c-2.1,0-3.7,0.7-4.8,2s-1.7,2.9-1.7,4.7v14.2h-4.2V12.1z"/>
	<path d="M192.5,13.5c1.8,1.4,2.8,3.7,3.2,7h-4c-0.2-1.5-0.8-2.8-1.7-3.8c-0.9-1-2.3-1.5-4.2-1.5c-2.7,0-4.5,1.3-5.7,3.9
		c-0.7,1.7-1.1,3.7-1.1,6.2c0,2.5,0.5,4.6,1.6,6.3c1,1.7,2.7,2.5,4.9,2.5c1.7,0,3.1-0.5,4.1-1.6s1.7-2.5,2.1-4.3h4
		c-0.5,3.3-1.6,5.7-3.5,7.2c-1.9,1.5-4.2,2.3-7.1,2.3c-3.2,0-5.8-1.2-7.7-3.6c-1.9-2.4-2.9-5.3-2.9-8.9c0-4.3,1.1-7.7,3.2-10.2
		c2.1-2.4,4.8-3.6,8.1-3.6C188.5,11.4,190.7,12.1,192.5,13.5z"/>
	<path d="M198.9,2.8h4.2v12.7c1-1.2,1.9-2.1,2.7-2.6c1.3-0.9,3-1.3,5-1.3c3.6,0,6,1.3,7.3,3.8c0.7,1.4,1,3.3,1,5.7v15.9h-4.3V21.3
		c0-1.8-0.2-3.2-0.7-4c-0.8-1.4-2.2-2-4.3-2c-1.7,0-3.3,0.6-4.7,1.8c-1.4,1.2-2.1,3.4-2.1,6.7v13.1h-4.2V2.8z"/>
	<path d="M224.3,2.9h4.2v4.7h-4.2V2.9z M224.3,12.3h4.2v24.7h-4.2V12.3z"/>
	<path d="M235.9,12.1l6.6,20.2l6.9-20.2h4.6l-9.3,24.8h-4.4l-9.1-24.8H235.9z"/>
	<path d="M271.9,12.8c1.6,0.8,2.9,1.9,3.7,3.2c0.8,1.2,1.4,2.7,1.7,4.4c0.2,1.1,0.4,3,0.4,5.5h-18c0.1,2.5,0.7,4.5,1.8,6.1
		c1.1,1.5,2.8,2.3,5.1,2.3c2.2,0,3.9-0.7,5.2-2.2c0.7-0.8,1.2-1.8,1.5-2.9h4.1c-0.1,0.9-0.5,1.9-1.1,3c-0.6,1.1-1.3,2-2,2.7
		c-1.3,1.2-2.8,2.1-4.7,2.5c-1,0.2-2.1,0.4-3.4,0.4c-3.1,0-5.7-1.1-7.8-3.4c-2.1-2.2-3.2-5.4-3.2-9.4c0-4,1.1-7.2,3.2-9.7
		c2.1-2.5,4.9-3.7,8.4-3.7C268.5,11.6,270.2,12,271.9,12.8z M273.4,22.6c-0.2-1.8-0.6-3.2-1.2-4.3c-1.1-2-3-3-5.7-3
		c-1.9,0-3.5,0.7-4.8,2.1c-1.3,1.4-2,3.1-2,5.3H273.4z"/>
	<path d="M133.6,20.3c-1,1-2.2,1.5-3.6,1.5s-2.6-0.5-3.6-1.5c-1-1-1.5-2.2-1.5-3.6c0-1.4,0.5-2.6,1.5-3.6c1-1,2.2-1.5,3.6-1.5
		c1.4,0,2.6,0.5,3.6,1.5c1,1,1.5,2.2,1.5,3.6S134.6,19.3,133.6,20.3z M126.8,13.6c-0.9,0.9-1.3,1.9-1.3,3.1c0,1.2,0.4,2.3,1.3,3.2
		c0.9,0.9,1.9,1.3,3.1,1.3c1.2,0,2.3-0.4,3.1-1.3c0.9-0.9,1.3-1.9,1.3-3.2c0-1.2-0.4-2.3-1.3-3.1c-0.9-0.9-1.9-1.3-3.1-1.3
		C128.8,12.2,127.7,12.7,126.8,13.6z M129.9,13.8c0.7,0,1.2,0.1,1.5,0.2c0.6,0.2,0.9,0.7,0.9,1.4c0,0.5-0.2,0.9-0.6,1.1
		c-0.2,0.1-0.5,0.2-0.8,0.3c0.4,0.1,0.8,0.3,1,0.6c0.2,0.3,0.3,0.6,0.3,0.9v0.4c0,0.1,0,0.3,0,0.4c0,0.2,0,0.2,0.1,0.3l0,0.1h-0.9
		c0,0,0,0,0-0.1c0,0,0,0,0-0.1l0-0.2v-0.4c0-0.7-0.2-1.1-0.5-1.3c-0.2-0.1-0.6-0.2-1.1-0.2h-0.8v2.2h-1v-5.6H129.9z M131,14.7
		c-0.3-0.1-0.7-0.2-1.2-0.2h-0.9v2h0.9c0.4,0,0.7,0,0.9-0.1c0.4-0.2,0.6-0.4,0.6-0.9C131.3,15.1,131.2,14.9,131,14.7z"/>
</g>
</svg>
