{
    "asset" : {
        "generator" : "Khronos glTF Blender I/O v1.5.17",
        "version" : "2.0"
    },
    "scene" : 1,
    "scenes" : [
        {
            "name" : "Oregano Meadow",
            "nodes" : [
                0,
                1,
                2,
                3,
                4,
                5,
                6,
                7
            ]
        },
        {
            "name" : "Scene",
            "nodes" : [
                8,
                9,
                10
            ]
        }
    ],
    "nodes" : [
        {
            "name" : "Sun",
            "rotation" : [
                0.34768810868263245,
                -0.39918941259384155,
                -0.5645594596862793,
                0.6332719922065735
            ],
            "translation" : [
                0,
                2.450275421142578,
                0.34679126739501953
            ]
        },
        {
            "mesh" : 0,
            "name" : "scene",
            "scale" : [
                2,
                2,
                2
            ],
            "translation" : [
                0,
                2.3385627269744873,
                0
            ]
        },
        {
            "name" : "Camera.001",
            "rotation" : [
                0.7071068286895752,
                0,
                0,
                0.7071068286895752
            ],
            "translation" : [
                0.4849788248538971,
                0.8195823431015015,
                -2.329728841781616
            ]
        },
        {
            "name" : "focus",
            "translation" : [
                0.5072258710861206,
                0.7156294584274292,
                -5.146856307983398
            ]
        },
        {
            "mesh" : 1,
            "name" : "Oregano Meadow 1",
            "scale" : [
                0.5,
                0.5,
                0.5
            ],
            "translation" : [
                0.4901164770126343,
                0.23503883183002472,
                -5.482766151428223
            ]
        },
        {
            "mesh" : 2,
            "name" : "Oregano Meadow 2",
            "scale" : [
                0.5,
                0.5,
                0.5
            ],
            "translation" : [
                -0.5071746706962585,
                0.23503883183002472,
                -5.482766151428223
            ]
        },
        {
            "mesh" : 3,
            "name" : "Oregano Meadow 3",
            "scale" : [
                0.5,
                0.5,
                0.5
            ],
            "translation" : [
                1.4713318347930908,
                0.23503883183002472,
                -5.482766151428223
            ]
        },
        {
            "mesh" : 4,
            "name" : "Grass Meadow",
            "scale" : [
                2.035425901412964,
                2.035425901412964,
                2.035425901412964
            ],
            "translation" : [
                0.4901164770126343,
                0.16535669565200806,
                -5.757637977600098
            ]
        },
        {
            "name" : "Camera",
            "rotation" : [
                0.7071068286895752,
                0,
                0,
                0.7071068286895752
            ],
            "translation" : [
                0,
                0,
                8.279999732971191
            ]
        },
        {
            "mesh" : 5,
            "name" : "Curve",
            "rotation" : [
                0.6492167115211487,
                0.28060898184776306,
                -0.28079232573509216,
                0.6487928032875061
            ],
            "scale" : [
                10.7395658493042,
                10.739566802978516,
                10.739566802978516
            ]
        },
        {
            "name" : "Material_Preview_Dummy"
        }
    ],
    "materials" : [
        {
            "doubleSided" : true,
            "name" : "Material.001",
            "pbrMetallicRoughness" : {
                "metallicFactor" : 0,
                "roughnessFactor" : 0.5
            }
        },
        {
            "doubleSided" : true,
            "name" : "Material.003",
            "pbrMetallicRoughness" : {
                "baseColorFactor" : [
                    0.800000011920929,
                    0.800000011920929,
                    0.800000011920929,
                    0
                ],
                "metallicFactor" : 0,
                "roughnessFactor" : 0
            }
        },
        {
            "doubleSided" : true,
            "name" : "Material.005",
            "pbrMetallicRoughness" : {
                "baseColorFactor" : [
                    0.800000011920929,
                    0.800000011920929,
                    0.800000011920929,
                    0
                ],
                "metallicFactor" : 0,
                "roughnessFactor" : 0
            }
        },
        {
            "doubleSided" : true,
            "name" : "Galvanized Steel",
            "pbrMetallicRoughness" : {}
        }
    ],
    "meshes" : [
        {
            "name" : "Cube",
            "primitives" : [
                {
                    "attributes" : {
                        "POSITION" : 0,
                        "NORMAL" : 1,
                        "TEXCOORD_0" : 2
                    },
                    "indices" : 3,
                    "material" : 0
                }
            ]
        },
        {
            "name" : "Plane.002",
            "primitives" : [
                {
                    "attributes" : {
                        "POSITION" : 4,
                        "NORMAL" : 5,
                        "TEXCOORD_0" : 6
                    },
                    "indices" : 7,
                    "material" : 1
                }
            ]
        },
        {
            "name" : "Plane.003",
            "primitives" : [
                {
                    "attributes" : {
                        "POSITION" : 8,
                        "NORMAL" : 9,
                        "TEXCOORD_0" : 10
                    },
                    "indices" : 7,
                    "material" : 1
                }
            ]
        },
        {
            "name" : "Plane.004",
            "primitives" : [
                {
                    "attributes" : {
                        "POSITION" : 11,
                        "NORMAL" : 12,
                        "TEXCOORD_0" : 13
                    },
                    "indices" : 7,
                    "material" : 1
                }
            ]
        },
        {
            "name" : "Plane.005",
            "primitives" : [
                {
                    "attributes" : {
                        "POSITION" : 14,
                        "NORMAL" : 15,
                        "TEXCOORD_0" : 16
                    },
                    "indices" : 7,
                    "material" : 2
                }
            ]
        },
        {
            "name" : "Curve",
            "primitives" : [
                {
                    "attributes" : {
                        "POSITION" : 17,
                        "NORMAL" : 18,
                        "TEXCOORD_0" : 19,
                        "TEXCOORD_1" : 20
                    },
                    "indices" : 21,
                    "material" : 3
                }
            ]
        }
    ],
    "accessors" : [
        {
            "bufferView" : 0,
            "componentType" : 5126,
            "count" : 10,
            "max" : [
                10,
                4.301268100738525,
                10
            ],
            "min" : [
                -10,
                -1.6421031951904297,
                -10
            ],
            "type" : "VEC3"
        },
        {
            "bufferView" : 1,
            "componentType" : 5126,
            "count" : 10,
            "type" : "VEC3"
        },
        {
            "bufferView" : 2,
            "componentType" : 5126,
            "count" : 10,
            "type" : "VEC2"
        },
        {
            "bufferView" : 3,
            "componentType" : 5123,
            "count" : 24,
            "type" : "SCALAR"
        },
        {
            "bufferView" : 4,
            "componentType" : 5126,
            "count" : 4,
            "max" : [
                1,
                0,
                1
            ],
            "min" : [
                -1,
                0,
                -1
            ],
            "type" : "VEC3"
        },
        {
            "bufferView" : 5,
            "componentType" : 5126,
            "count" : 4,
            "type" : "VEC3"
        },
        {
            "bufferView" : 6,
            "componentType" : 5126,
            "count" : 4,
            "type" : "VEC2"
        },
        {
            "bufferView" : 7,
            "componentType" : 5123,
            "count" : 6,
            "type" : "SCALAR"
        },
        {
            "bufferView" : 8,
            "componentType" : 5126,
            "count" : 4,
            "max" : [
                1,
                0,
                1
            ],
            "min" : [
                -1,
                0,
                -1
            ],
            "type" : "VEC3"
        },
        {
            "bufferView" : 9,
            "componentType" : 5126,
            "count" : 4,
            "type" : "VEC3"
        },
        {
            "bufferView" : 10,
            "componentType" : 5126,
            "count" : 4,
            "type" : "VEC2"
        },
        {
            "bufferView" : 11,
            "componentType" : 5126,
            "count" : 4,
            "max" : [
                1,
                0,
                1
            ],
            "min" : [
                -1,
                0,
                -1
            ],
            "type" : "VEC3"
        },
        {
            "bufferView" : 12,
            "componentType" : 5126,
            "count" : 4,
            "type" : "VEC3"
        },
        {
            "bufferView" : 13,
            "componentType" : 5126,
            "count" : 4,
            "type" : "VEC2"
        },
        {
            "bufferView" : 14,
            "componentType" : 5126,
            "count" : 4,
            "max" : [
                1,
                0,
                1
            ],
            "min" : [
                -1,
                0,
                -1
            ],
            "type" : "VEC3"
        },
        {
            "bufferView" : 15,
            "componentType" : 5126,
            "count" : 4,
            "type" : "VEC3"
        },
        {
            "bufferView" : 16,
            "componentType" : 5126,
            "count" : 4,
            "type" : "VEC2"
        },
        {
            "bufferView" : 17,
            "componentType" : 5126,
            "count" : 3552,
            "max" : [
                0.06996887922286987,
                0.005867749452590942,
                0.08291123062372208
            ],
            "min" : [
                -0.09897279739379883,
                -0.005695105995982885,
                -0.06368867307901382
            ],
            "type" : "VEC3"
        },
        {
            "bufferView" : 18,
            "componentType" : 5126,
            "count" : 3552,
            "type" : "VEC3"
        },
        {
            "bufferView" : 19,
            "componentType" : 5126,
            "count" : 3552,
            "type" : "VEC2"
        },
        {
            "bufferView" : 20,
            "componentType" : 5126,
            "count" : 3552,
            "type" : "VEC2"
        },
        {
            "bufferView" : 21,
            "componentType" : 5123,
            "count" : 5208,
            "type" : "SCALAR"
        }
    ],
    "bufferViews" : [
        {
            "buffer" : 0,
            "byteLength" : 120,
            "byteOffset" : 0
        },
        {
            "buffer" : 0,
            "byteLength" : 120,
            "byteOffset" : 120
        },
        {
            "buffer" : 0,
            "byteLength" : 80,
            "byteOffset" : 240
        },
        {
            "buffer" : 0,
            "byteLength" : 48,
            "byteOffset" : 320
        },
        {
            "buffer" : 0,
            "byteLength" : 48,
            "byteOffset" : 368
        },
        {
            "buffer" : 0,
            "byteLength" : 48,
            "byteOffset" : 416
        },
        {
            "buffer" : 0,
            "byteLength" : 32,
            "byteOffset" : 464
        },
        {
            "buffer" : 0,
            "byteLength" : 12,
            "byteOffset" : 496
        },
        {
            "buffer" : 0,
            "byteLength" : 48,
            "byteOffset" : 508
        },
        {
            "buffer" : 0,
            "byteLength" : 48,
            "byteOffset" : 556
        },
        {
            "buffer" : 0,
            "byteLength" : 32,
            "byteOffset" : 604
        },
        {
            "buffer" : 0,
            "byteLength" : 48,
            "byteOffset" : 636
        },
        {
            "buffer" : 0,
            "byteLength" : 48,
            "byteOffset" : 684
        },
        {
            "buffer" : 0,
            "byteLength" : 32,
            "byteOffset" : 732
        },
        {
            "buffer" : 0,
            "byteLength" : 48,
            "byteOffset" : 764
        },
        {
            "buffer" : 0,
            "byteLength" : 48,
            "byteOffset" : 812
        },
        {
            "buffer" : 0,
            "byteLength" : 32,
            "byteOffset" : 860
        },
        {
            "buffer" : 0,
            "byteLength" : 42624,
            "byteOffset" : 892
        },
        {
            "buffer" : 0,
            "byteLength" : 42624,
            "byteOffset" : 43516
        },
        {
            "buffer" : 0,
            "byteLength" : 28416,
            "byteOffset" : 86140
        },
        {
            "buffer" : 0,
            "byteLength" : 28416,
            "byteOffset" : 114556
        },
        {
            "buffer" : 0,
            "byteLength" : 10416,
            "byteOffset" : 142972
        }
    ],
    "buffers" : [
        {
            "byteLength" : 153388,
            "uri" : "data:application/octet-stream;base64,"
        }
    ]
}
