<?xml version="1.0" encoding="utf-8"?>
<!-- Generator: Adobe Illustrator 25.4.1, SVG Export Plug-In . SVG Version: 6.00 Build 0)  -->
<svg version="1.1" id="Layer_1" xmlns="http://www.w3.org/2000/svg" xmlns:xlink="http://www.w3.org/1999/xlink" x="0px" y="0px"
	 viewBox="0 0 100 19.1" style="enable-background:new 0 0 100 19.1;" xml:space="preserve">
<g>
	<path d="M0.6,0.7h1.7v6.9l1.6-1.9h7.3l3.2,3.5v9.1h-1.7V9.7l-2.4-2.5H4.7L2.3,9.7v8.5H0.6V0.7z"/>
	<path d="M16.3,16.1l3.7-4v-0.3l-3.7-4V5.7h1.7v1.6l3.6,3.9h1.9l3.6-3.9V5.7h1.7v2.1l-3.7,4v0.3l3.7,4v2.1h-1.7v-1.6l-3.6-3.9h-1.9
		l-3.6,3.9v1.6h-1.7V16.1z"/>
	<path d="M37.1,18.4c-2.5,0-4.4-0.5-5.7-1.6c-1.3-1.1-1.9-2.7-1.9-4.8c0-2.1,0.6-3.7,1.9-4.8c1.3-1.1,3.2-1.6,5.7-1.6
		c2.5,0,4.4,0.5,5.7,1.6c1.3,1.1,1.9,2.7,1.9,4.8c0,2.1-0.6,3.7-1.9,4.8C41.5,17.9,39.6,18.4,37.1,18.4z M37.1,16.9
		c2,0,3.5-0.4,4.5-1.3c1-0.8,1.5-2.1,1.5-3.7c0-1.6-0.5-2.8-1.5-3.7C40.5,7.4,39,7,37.1,7c-2,0-3.5,0.4-4.5,1.3
		c-1,0.8-1.5,2.1-1.5,3.7c0,1.6,0.5,2.9,1.5,3.7C33.6,16.5,35.1,16.9,37.1,16.9z"/>
	<path d="M59.7,18.2h-1.7v-1.9l-1.6,1.9h-7.1l-3.2-3.5V5.7h1.7v8.5l2.4,2.5h5.5l2.4-2.5V5.7h1.7V18.2z"/>
	<path d="M61.1,15.5l1.1-1.2l2.1,2.3H72l1.1-1.2v-1.4l-1.3-1.4h-8.2l-1.9-2.1V7.8l2.3-2.1H72l2.5,2.7l-1.1,1.2l-2.1-2.3h-6.6
		l-1.4,1.2v1.7l1.1,1.1h8.2l2.2,2.4v2.5l-2,2.1h-9.2L61.1,15.5z"/>
	<path d="M75.9,14.7v-2.9c0-2.2,0.6-3.8,1.8-4.8c1.2-1,3-1.6,5.5-1.6c2.4,0,4.2,0.5,5.4,1.5c1.2,1,1.9,2.5,1.9,4.4v1.1H77.5v1.7
		l2.4,2.5h6.5l2.3-2.5l1.1,1.2l-2.7,2.8h-8L75.9,14.7z M88.8,11c0-1.3-0.5-2.3-1.4-3c-1-0.7-2.4-1-4.2-1c-1.8,0-3.2,0.3-4.2,1
		c-1,0.7-1.4,1.7-1.4,3H88.8z"/>
	<path d="M97.4,6.2C98,6.5,98.5,7,98.8,7.6c0.4,0.6,0.5,1.2,0.5,2c0,0.7-0.2,1.4-0.5,2c-0.4,0.6-0.8,1.1-1.5,1.4
		c-0.6,0.3-1.3,0.5-2,0.5c-0.7,0-1.4-0.2-2-0.5c-0.6-0.3-1.1-0.8-1.5-1.4c-0.4-0.6-0.5-1.2-0.5-2c0-0.7,0.2-1.4,0.5-2
		c0.4-0.6,0.8-1.1,1.5-1.4c0.6-0.3,1.3-0.5,2-0.5C96.1,5.6,96.8,5.8,97.4,6.2z M97,12.3c0.5-0.3,0.9-0.7,1.2-1.2
		c0.3-0.5,0.5-1,0.5-1.6c0-0.6-0.1-1.1-0.5-1.6C97.9,7.4,97.5,7,97,6.7c-0.5-0.3-1.1-0.4-1.7-0.4c-0.6,0-1.2,0.1-1.7,0.4
		c-0.5,0.3-0.9,0.7-1.2,1.2C92.2,8.4,92,9,92,9.5c0,0.6,0.1,1.1,0.5,1.6c0.3,0.5,0.7,0.9,1.2,1.2s1.1,0.4,1.7,0.4
		C96,12.8,96.5,12.6,97,12.3z M97.1,9.6c-0.2,0.2-0.4,0.4-0.7,0.5l1,1.6h-1.2l-0.9-1.6h-0.8v1.6h-1V7.4h2.2c0.5,0,0.9,0.1,1.2,0.4
		c0.3,0.2,0.4,0.6,0.4,1C97.3,9.1,97.2,9.4,97.1,9.6z M94.5,9.4h1c0.2,0,0.4-0.1,0.6-0.2c0.1-0.1,0.2-0.3,0.2-0.5s-0.1-0.3-0.2-0.5
		c-0.1-0.1-0.3-0.2-0.6-0.2h-1V9.4z"/>
</g>
</svg>
